<svg id="Слой_1" data-name="Слой 1" xmlns="http://www.w3.org/2000/svg" viewBox="0 0 5400 1080"><defs><style>.cls-1{fill:#4f141a;}.cls-2{fill:#864748;}</style></defs><title>House_Border</title><polygon class="cls-1" points="5399.49 0 5400 1076.15 5377.66 1080 5374.33 0 5399.49 0"/><polygon class="cls-2" points="5377.66 1080 5374.33 0 5369.15 0 5374.33 1061.35 5377.66 1080"/><polygon class="cls-1" points="30.34 0 30 1080 0 1080 5.18 0 30.34 0"/><polygon class="cls-2" points="0 1080 5.18 0 0 0 5.18 1061.35 0 1080"/><polygon class="cls-1" points="5400 1079.49 2.44 1080 0 1057.66 5400 1054.33 5400 1079.49"/><polygon class="cls-2" points="0 1057.66 5400 1054.33 5400 1049.15 93.24 1054.33 0 1057.66"/><polygon class="cls-1" points="5400 30.34 2.44 30.85 0 8.51 5400 5.18 5400 30.34"/><polygon class="cls-2" points="0 8.51 5400 5.18 5400 0 93.24 5.18 0 8.51"/></svg>