<svg id="Layer_2" data-name="Layer 2" xmlns="http://www.w3.org/2000/svg" xmlns:xlink="http://www.w3.org/1999/xlink" viewBox="0 0 735.27 593.74"><defs><style>.cls-1{mask:url(#mask);}.cls-2{mix-blend-mode:multiply;fill:url(#linear-gradient);}.cls-3{fill:#f6d7a5;}.cls-4{clip-path:url(#clip-path);}.cls-5{fill:url(#Безымянный_градиент_58);}.cls-10,.cls-11,.cls-12,.cls-13,.cls-14,.cls-6,.cls-7,.cls-8,.cls-9{opacity:0.5;}.cls-6{fill:url(#Безымянный_градиент_64);}.cls-7{fill:url(#Безымянный_градиент_64-2);}.cls-8{fill:url(#Безымянный_градиент_64-3);}.cls-9{fill:url(#Безымянный_градиент_64-4);}.cls-10{fill:url(#Безымянный_градиент_64-5);}.cls-11{fill:url(#Безымянный_градиент_64-6);}.cls-12{fill:url(#Безымянный_градиент_64-7);}.cls-13{fill:url(#Безымянный_градиент_64-8);}.cls-14{fill:url(#Безымянный_градиент_64-9);}.cls-15,.cls-16,.cls-19{fill:#4f141a;}.cls-15{opacity:0.1;}.cls-16,.cls-20{opacity:0.2;}.cls-17{fill:#a8423e;}.cls-18{mask:url(#mask-2);}.cls-20{fill:#1d1e1c;}.cls-21{fill:#6d202d;}.cls-22{opacity:0.8;}.cls-23{fill:#421116;}.cls-24{fill:url(#linear-gradient-2);}.cls-25{fill:url(#linear-gradient-3);}.cls-26{fill:url(#linear-gradient-4);}.cls-27{fill:url(#linear-gradient-5);}.cls-28{fill:url(#linear-gradient-6);}.cls-29{fill:url(#linear-gradient-7);}.cls-30{fill:url(#linear-gradient-8);}.cls-31{fill:url(#linear-gradient-9);}.cls-32{fill:url(#linear-gradient-10);}.cls-33{fill:url(#linear-gradient-11);}.cls-34{fill:url(#Безымянный_градиент_3);}.cls-35{fill:url(#Безымянный_градиент_3-2);}.cls-36{fill:url(#Безымянный_градиент_3-3);}.cls-37{fill:url(#Безымянный_градиент_3-4);}.cls-38{fill:url(#Безымянный_градиент_3-5);}.cls-39{fill:url(#Безымянный_градиент_3-6);}.cls-40{fill:url(#Безымянный_градиент_3-7);}.cls-41{fill:url(#Безымянный_градиент_3-8);}.cls-42{fill:url(#Безымянный_градиент_3-9);}.cls-43{fill:url(#Безымянный_градиент_3-10);}.cls-44{fill:url(#Безымянный_градиент_3-11);}.cls-45{fill:url(#Безымянный_градиент_3-12);}.cls-46{fill:url(#Безымянный_градиент_3-13);}.cls-47{fill:url(#Безымянный_градиент_3-14);}.cls-48{fill:url(#Безымянный_градиент_3-15);}.cls-49{fill:url(#Безымянный_градиент_3-16);}.cls-50{fill:url(#Безымянный_градиент_3-17);}.cls-51{fill:url(#Безымянный_градиент_3-18);}.cls-52{fill:url(#Безымянный_градиент_3-19);}.cls-53{fill:url(#Безымянный_градиент_3-20);}.cls-54{filter:url(#luminosity-noclip-2);}.cls-55{filter:url(#luminosity-noclip);}</style><filter id="luminosity-noclip" x="2.91" y="-8732" width="691.15" height="32766" filterUnits="userSpaceOnUse" color-interpolation-filters="sRGB"><feFlood flood-color="#fff" result="bg"/><feBlend in="SourceGraphic" in2="bg"/></filter><mask id="mask" x="2.91" y="-8732" width="691.15" height="32766" maskUnits="userSpaceOnUse"><g class="cls-55"/></mask><linearGradient id="linear-gradient" x1="4964.36" y1="810.19" x2="5655.51" y2="810.19" gradientTransform="matrix(-1, 0, 0, 1, 5658.42, 0)" gradientUnits="userSpaceOnUse"><stop offset="0" stop-color="#fff"/><stop offset="0.12" stop-color="#c2c2c2"/><stop offset="0.39" stop-color="#2b2b2b"/><stop offset="0.46"/><stop offset="1" stop-color="#fff"/></linearGradient><clipPath id="clip-path" transform="translate(0 -493.22)"><polygon class="cls-3" points="0 540.38 105.65 540.38 105.65 602.48 171.03 602.48 171.03 652.27 236.41 652.27 236.41 702.06 301.79 702.06 301.79 751.85 367.17 751.85 367.17 801.64 432.55 801.64 432.55 851.42 497.92 851.42 497.92 901.21 563.3 901.21 563.3 951 628.68 951 628.68 1000.79 694.06 1000.79 694.06 1080 0 1080 0 540.38"/></clipPath><radialGradient id="Безымянный_градиент_58" cx="5175.53" cy="812.49" r="390.35" gradientTransform="matrix(-0.72, 0, 0, 0.59, 4100.03, -166.91)" gradientUnits="userSpaceOnUse"><stop offset="0" stop-color="#f7b489"/><stop offset="0.5" stop-color="#fed693"/><stop offset="1" stop-color="#f9c08d"/></radialGradient><linearGradient id="Безымянный_градиент_64" x1="5037.61" y1="1086.96" x2="5037.61" y2="506.09" gradientTransform="matrix(-1, 0, 0, 1, 5658.42, -493.22)" gradientUnits="userSpaceOnUse"><stop offset="0" stop-color="#f4a074"/><stop offset="1" stop-color="#f5aa79"/></linearGradient><linearGradient id="Безымянный_градиент_64-2" x1="5112.59" y1="1086.96" x2="5112.59" y2="506.09" xlink:href="#Безымянный_градиент_64"/><linearGradient id="Безымянный_градиент_64-3" x1="5186.01" y1="1086.96" x2="5186.01" y2="506.09" xlink:href="#Безымянный_градиент_64"/><linearGradient id="Безымянный_градиент_64-4" x1="5260.5" y1="1086.96" x2="5260.5" y2="506.09" xlink:href="#Безымянный_градиент_64"/><linearGradient id="Безымянный_градиент_64-5" x1="5332.49" y1="1086.96" x2="5332.49" y2="506.09" xlink:href="#Безымянный_градиент_64"/><linearGradient id="Безымянный_градиент_64-6" x1="5408.9" y1="1086.96" x2="5408.9" y2="506.09" xlink:href="#Безымянный_градиент_64"/><linearGradient id="Безымянный_градиент_64-7" x1="5483.2" y1="1086.96" x2="5483.2" y2="506.09" xlink:href="#Безымянный_градиент_64"/><linearGradient id="Безымянный_градиент_64-8" x1="5557.5" y1="1086.96" x2="5557.5" y2="506.09" xlink:href="#Безымянный_градиент_64"/><linearGradient id="Безымянный_градиент_64-9" x1="5626.01" y1="1086.96" x2="5626.01" y2="493.22" xlink:href="#Безымянный_градиент_64"/><filter id="luminosity-noclip-2" x="0" y="540.38" width="694.06" height="539.62" filterUnits="userSpaceOnUse" color-interpolation-filters="sRGB"><feFlood flood-color="#fff" result="bg"/><feBlend in="SourceGraphic" in2="bg"/></filter><mask id="mask-2" x="0" y="47.17" width="694.06" height="539.62" maskUnits="userSpaceOnUse"><g class="cls-54"><g transform="translate(0 -493.22)"><g class="cls-1"><polygon class="cls-2" points="2.91 540.38 92.26 540.38 87.78 619.46 153 619.46 157.64 669.24 217.09 669.24 223.02 719.03 288.4 719.03 288.4 768.82 353.78 772.54 353.78 818.61 414.33 818.61 419.16 868.4 484.54 868.4 484.54 918.19 549.92 918.19 553.27 967.98 615.29 967.98 619.59 1017.55 678.41 1020.15 680.67 1056.3 694.06 1080 694.06 1000.79 628.68 1000.79 628.68 951 563.3 951 563.3 901.21 497.92 901.21 497.92 851.42 432.55 851.42 432.55 801.64 367.17 801.64 367.17 751.85 301.79 751.85 301.79 702.06 236.41 702.06 236.41 652.27 171.03 652.27 171.03 602.48 105.65 602.48 105.65 540.38 2.91 540.38 2.91 540.38"/></g></g></g></mask><linearGradient id="linear-gradient-2" x1="4958.42" y1="994.76" x2="5032.52" y2="994.76" gradientTransform="matrix(1, 0, 0, -1, -4332.52, 1989.51)" gradientUnits="userSpaceOnUse"><stop offset="0" stop-color="#a8423e"/><stop offset="1" stop-color="#641123"/></linearGradient><linearGradient id="linear-gradient-3" x1="5024.11" y1="944.97" x2="5098.21" y2="944.97" gradientTransform="matrix(1, 0, 0, -1, -4463.9, 1889.93)" xlink:href="#linear-gradient-2"/><linearGradient id="linear-gradient-4" x1="5089.18" y1="895.18" x2="5163.28" y2="895.18" gradientTransform="matrix(1, 0, 0, -1, -4594.03, 1790.36)" xlink:href="#linear-gradient-2"/><linearGradient id="linear-gradient-5" x1="5154.56" y1="845.39" x2="5228.65" y2="845.39" gradientTransform="matrix(1, 0, 0, -1, -4724.79, 1690.78)" xlink:href="#linear-gradient-2"/><linearGradient id="linear-gradient-6" x1="5219.94" y1="795.6" x2="5294.03" y2="795.6" gradientTransform="matrix(1, 0, 0, -1, -4855.55, 1591.2)" xlink:href="#linear-gradient-2"/><linearGradient id="linear-gradient-7" x1="5285.32" y1="745.81" x2="5359.41" y2="745.81" gradientTransform="matrix(1, 0, 0, -1, -4986.31, 1491.63)" xlink:href="#linear-gradient-2"/><linearGradient id="linear-gradient-8" x1="5350.7" y1="696.02" x2="5424.79" y2="696.02" gradientTransform="matrix(1, 0, 0, -1, -5117.07, 1392.05)" xlink:href="#linear-gradient-2"/><linearGradient id="linear-gradient-9" x1="5416.08" y1="646.24" x2="5490.17" y2="646.24" gradientTransform="matrix(1, 0, 0, -1, -5247.83, 1292.47)" xlink:href="#linear-gradient-2"/><linearGradient id="linear-gradient-10" x1="5481.45" y1="596.45" x2="5555.55" y2="596.45" gradientTransform="matrix(1, 0, 0, -1, -5378.58, 1192.89)" xlink:href="#linear-gradient-2"/><linearGradient id="linear-gradient-11" x1="5545.72" y1="536.03" x2="5658.42" y2="536.03" gradientTransform="matrix(1, 0, 0, -1, -5545.72, 1072.07)" xlink:href="#linear-gradient-2"/><linearGradient id="Безымянный_градиент_3" x1="4995.47" y1="1000.79" x2="4995.47" y2="988.72" gradientTransform="matrix(1, 0, 0, -1, -4332.52, 1989.51)" gradientUnits="userSpaceOnUse"><stop offset="0" stop-color="#4f141a" stop-opacity="0"/><stop offset="0.4" stop-color="#4d141a" stop-opacity="0.06"/><stop offset="0.63" stop-color="#47141a" stop-opacity="0.24"/><stop offset="0.83" stop-color="#3c141a" stop-opacity="0.56"/><stop offset="1" stop-color="#2d141a"/></linearGradient><linearGradient id="Безымянный_градиент_3-2" x1="5061.16" y1="951" x2="5061.16" y2="938.93" gradientTransform="matrix(1, 0, 0, -1, -4463.9, 1889.93)" xlink:href="#Безымянный_градиент_3"/><linearGradient id="Безымянный_градиент_3-3" x1="5126.23" y1="901.21" x2="5126.23" y2="889.14" gradientTransform="matrix(1, 0, 0, -1, -4594.03, 1790.36)" xlink:href="#Безымянный_градиент_3"/><linearGradient id="Безымянный_градиент_3-4" x1="5191.61" y1="851.43" x2="5191.61" y2="839.36" gradientTransform="matrix(1, 0, 0, -1, -4724.79, 1690.78)" xlink:href="#Безымянный_градиент_3"/><linearGradient id="Безымянный_градиент_3-5" x1="5256.99" y1="801.64" x2="5256.99" y2="789.57" gradientTransform="matrix(1, 0, 0, -1, -4855.55, 1591.2)" xlink:href="#Безымянный_градиент_3"/><linearGradient id="Безымянный_градиент_3-6" x1="5322.37" y1="751.85" x2="5322.37" y2="739.78" gradientTransform="matrix(1, 0, 0, -1, -4986.31, 1491.63)" xlink:href="#Безымянный_градиент_3"/><linearGradient id="Безымянный_градиент_3-7" x1="5387.74" y1="702.06" x2="5387.74" y2="689.99" gradientTransform="matrix(1, 0, 0, -1, -5117.07, 1392.05)" xlink:href="#Безымянный_градиент_3"/><linearGradient id="Безымянный_градиент_3-8" x1="5453.12" y1="652.27" x2="5453.12" y2="640.2" gradientTransform="matrix(1, 0, 0, -1, -5247.83, 1292.47)" xlink:href="#Безымянный_градиент_3"/><linearGradient id="Безымянный_градиент_3-9" x1="5518.5" y1="602.48" x2="5518.5" y2="590.41" gradientTransform="matrix(1, 0, 0, -1, -5378.58, 1192.89)" xlink:href="#Безымянный_градиент_3"/><linearGradient id="Безымянный_градиент_3-10" x1="5602.07" y1="542.07" x2="5602.07" y2="530" gradientTransform="matrix(1, 0, 0, -1, -5545.72, 1072.07)" xlink:href="#Безымянный_градиент_3"/><linearGradient id="Безымянный_градиент_3-11" x1="5032.52" y1="994.76" x2="4958.42" y2="994.76" xlink:href="#Безымянный_градиент_3"/><linearGradient id="Безымянный_градиент_3-12" x1="5098.21" y1="944.97" x2="5024.11" y2="944.97" gradientTransform="matrix(1, 0, 0, -1, -4463.9, 1889.93)" xlink:href="#Безымянный_градиент_3"/><linearGradient id="Безымянный_градиент_3-13" x1="5163.28" y1="895.18" x2="5089.18" y2="895.18" gradientTransform="matrix(1, 0, 0, -1, -4594.03, 1790.36)" xlink:href="#Безымянный_градиент_3"/><linearGradient id="Безымянный_градиент_3-14" x1="5228.65" y1="845.39" x2="5154.56" y2="845.39" gradientTransform="matrix(1, 0, 0, -1, -4724.79, 1690.78)" xlink:href="#Безымянный_градиент_3"/><linearGradient id="Безымянный_градиент_3-15" x1="5294.03" y1="795.6" x2="5219.94" y2="795.6" gradientTransform="matrix(1, 0, 0, -1, -4855.55, 1591.2)" xlink:href="#Безымянный_градиент_3"/><linearGradient id="Безымянный_градиент_3-16" x1="5359.41" y1="745.81" x2="5285.32" y2="745.81" gradientTransform="matrix(1, 0, 0, -1, -4986.31, 1491.63)" xlink:href="#Безымянный_градиент_3"/><linearGradient id="Безымянный_градиент_3-17" x1="5424.79" y1="696.02" x2="5350.7" y2="696.02" gradientTransform="matrix(1, 0, 0, -1, -5117.07, 1392.05)" xlink:href="#Безымянный_градиент_3"/><linearGradient id="Безымянный_градиент_3-18" x1="5490.17" y1="646.24" x2="5416.08" y2="646.24" gradientTransform="matrix(1, 0, 0, -1, -5247.83, 1292.47)" xlink:href="#Безымянный_градиент_3"/><linearGradient id="Безымянный_градиент_3-19" x1="5555.55" y1="596.45" x2="5481.45" y2="596.45" gradientTransform="matrix(1, 0, 0, -1, -5378.58, 1192.89)" xlink:href="#Безымянный_градиент_3"/><linearGradient id="Безымянный_градиент_3-20" x1="5658.42" y1="536.03" x2="5545.72" y2="536.03" gradientTransform="matrix(1, 0, 0, -1, -5545.72, 1072.07)" xlink:href="#Безымянный_градиент_3"/></defs><title>House_Stairs</title><polygon class="cls-3" points="0 47.17 105.65 47.17 105.65 109.27 171.03 109.27 171.03 159.06 236.41 159.06 236.41 208.84 301.79 208.84 301.79 258.63 367.17 258.63 367.17 308.42 432.55 308.42 432.55 358.21 497.92 358.21 497.92 408 563.3 408 563.3 457.79 628.68 457.79 628.68 507.57 694.06 507.57 694.06 586.78 0 586.78 0 47.17"/><g class="cls-4"><rect class="cls-5" y="36.18" width="699.8" height="550.6"/><polygon class="cls-6" points="640.82 593.74 628.19 20.61 600.81 12.88 614.29 591.98 640.82 593.74"/><polygon class="cls-7" points="565.16 593.74 561.69 12.88 526.51 12.88 539.99 593.74 565.16 593.74"/><polygon class="cls-8" points="492.22 593.74 492.62 12.88 452.21 12.88 462.1 593.74 492.22 593.74"/><polygon class="cls-9" points="417.92 593.74 410.78 12.88 377.91 12.88 387.8 593.74 417.92 593.74"/><polygon class="cls-10" points="343.62 593.74 344.02 12.88 307.85 12.88 313.5 593.74 343.62 593.74"/><polygon class="cls-11" points="269.32 593.74 269.72 12.88 229.31 12.88 239.2 593.74 269.32 593.74"/><polygon class="cls-12" points="195.03 593.74 195.42 12.88 155.02 12.88 164.9 593.74 195.03 593.74"/><polygon class="cls-13" points="120.73 593.74 121.12 12.88 80.72 12.88 90.6 593.74 120.73 593.74"/><polygon class="cls-14" points="49.09 593.74 46.82 0 24.64 0 15.73 592.52 49.09 593.74"/><polygon class="cls-15" points="577.22 543.78 364.95 366.95 106.45 186.35 0.44 169.48 0 35.83 234.4 77.69 735.27 573.96 577.22 543.78"/></g><polygon class="cls-16" points="0 97.39 69.42 97.39 75.18 130.31 146.15 138.2 146.15 187.99 205.59 187.99 211.53 237.78 276.91 237.78 276.91 287.57 342.29 287.57 338.83 335.32 407.67 337.35 411.48 385.52 473.05 387.14 477.31 440.31 538.43 436.93 542.22 486.72 603.81 486.72 608.1 536.3 669.19 538.88 669.19 586.78 682.57 586.78 682.57 519.53 621.81 519.53 617.19 469.75 554.59 469.75 551.82 419.96 486.44 419.96 486.44 370.17 421.06 370.17 421.06 320.38 355.68 320.38 355.68 270.59 290.3 270.59 290.3 220.8 224.92 220.8 224.92 171.01 159.54 171.01 159.54 121.23 94.16 121.23 94.16 46.98 0 46.98 0 97.39"/><polygon class="cls-17" points="0 47.17 92.26 47.17 87.78 126.24 153 126.24 157.64 176.03 217.09 176.03 223.02 225.82 288.4 225.82 288.4 275.61 353.78 279.32 353.78 325.39 414.33 325.39 419.16 375.18 484.54 375.18 484.54 424.97 549.92 424.97 553.27 474.76 615.29 474.76 619.59 524.34 678.41 526.93 680.67 586.78 694.06 586.78 694.06 507.57 628.68 507.57 628.68 457.79 563.3 457.79 563.3 408 497.92 408 497.92 358.21 432.55 358.21 432.55 308.42 367.17 308.42 367.17 258.63 301.79 258.63 301.79 208.84 236.41 208.84 236.41 159.06 171.03 159.06 171.03 109.27 105.65 109.27 105.65 47.17 0 47.17 0 47.17"/><g class="cls-18"><polygon class="cls-19" points="0 47.17 92.26 47.17 87.78 126.24 153 126.24 157.64 176.03 217.09 176.03 223.02 225.82 288.4 225.82 288.4 275.61 353.78 279.32 353.78 325.39 414.33 325.39 419.16 375.18 484.54 375.18 484.54 424.97 549.92 424.97 553.27 474.76 615.29 474.76 619.59 524.34 678.41 526.93 680.67 586.78 694.06 586.78 694.06 507.57 628.68 507.57 628.68 457.79 563.3 457.79 563.3 408 497.92 408 497.92 358.21 432.55 358.21 432.55 308.42 367.17 308.42 367.17 258.63 301.79 258.63 301.79 208.84 236.41 208.84 236.41 159.06 171.03 159.06 171.03 109.27 105.65 109.27 105.65 47.17 0 47.17 0 47.17"/></g><polygon class="cls-19" points="0 47.17 0 59.65 85.77 60.43 84.87 126.24 150.09 126.24 154.73 176.03 214.18 176.03 220.11 225.82 285.49 225.82 285.49 275.61 350.87 279.32 350.87 325.39 411.42 325.39 416.25 375.18 481.63 375.18 481.63 424.97 547.01 424.97 550.36 474.76 612.38 474.76 616.68 524.34 675.5 526.93 677.76 586.78 691.15 586.78 691.15 507.57 625.77 507.57 625.77 457.79 560.39 457.79 560.39 408 495.01 408 495.01 358.21 429.63 358.21 429.63 308.42 364.25 308.42 364.25 258.63 298.88 258.63 298.88 208.84 233.5 208.84 233.5 159.06 168.12 159.06 168.12 109.27 102.74 109.27 102.74 47.17 0 47.17 0 47.17"/><polygon class="cls-20" points="84.87 126.24 150.09 126.24 154.73 176.03 214.19 176.03 220.11 225.82 285.49 225.82 285.49 275.61 350.87 279.32 350.87 325.39 411.42 325.39 416.25 375.18 481.63 375.18 481.63 424.97 547 424.97 550.36 474.76 612.38 474.76 616.68 524.34 675.5 526.93 677.76 587.1 691.15 586.78 691.15 583.59 680.67 584.06 678.41 523.89 619.59 521.29 615.29 471.72 553.27 471.72 549.92 421.93 484.54 421.93 484.54 372.14 419.16 372.14 414.33 322.35 353.78 322.35 353.78 276.28 288.4 272.56 288.4 222.77 223.02 222.77 217.1 172.99 157.64 172.99 153 123.2 87.78 123.2 88.8 55.75 0 56.09 0 60.43 85.77 60.43 84.87 126.24"/><polygon class="cls-21" points="695.81 507.57 694.06 563.28 690.72 563.28 690.72 507.57 695.81 507.57"/><rect class="cls-19" x="680.67" y="558.87" width="13.39" height="4.15"/><g class="cls-22"><rect class="cls-23" x="619.97" y="992.95" width="74.1" height="12.07" transform="translate(1314.03 1504.76) rotate(-180)"/><rect class="cls-23" x="554.27" y="943.16" width="74.1" height="12.07" transform="translate(1182.65 1405.18) rotate(-180)"/><rect class="cls-23" x="489.21" y="893.38" width="74.1" height="12.07" transform="translate(1052.51 1305.6) rotate(-180)"/><rect class="cls-23" x="423.83" y="843.59" width="74.1" height="12.07" transform="translate(921.75 1206.03) rotate(-180)"/><rect class="cls-23" x="358.45" y="793.8" width="74.1" height="12.07" transform="translate(790.99 1106.45) rotate(-180)"/><rect class="cls-23" x="293.07" y="744.01" width="74.1" height="12.07" transform="translate(660.24 1006.87) rotate(-180)"/><rect class="cls-23" x="227.69" y="694.22" width="74.1" height="12.07" transform="translate(529.48 907.3) rotate(-180)"/><rect class="cls-23" x="162.31" y="644.43" width="74.1" height="12.07" transform="translate(398.72 807.72) rotate(-180)"/><rect class="cls-23" x="96.93" y="594.64" width="74.1" height="12.07" transform="translate(267.96 708.14) rotate(-180)"/></g><rect class="cls-24" x="625.9" y="988.72" width="74.1" height="12.07" transform="translate(1325.9 1496.3) rotate(-180)"/><rect class="cls-25" x="560.21" y="938.93" width="74.1" height="12.07" transform="translate(1194.52 1396.72) rotate(-180)"/><rect class="cls-26" x="495.15" y="889.14" width="74.1" height="12.07" transform="translate(1064.39 1297.14) rotate(-180)"/><rect class="cls-27" x="429.77" y="839.36" width="74.1" height="12.07" transform="translate(933.63 1197.56) rotate(-180)"/><rect class="cls-28" x="364.39" y="789.57" width="74.1" height="12.07" transform="translate(802.87 1097.99) rotate(-180)"/><rect class="cls-29" x="299.01" y="739.78" width="74.1" height="12.07" transform="translate(672.11 998.41) rotate(-180)"/><rect class="cls-30" x="233.63" y="689.99" width="74.1" height="12.07" transform="translate(541.35 898.83) rotate(-180)"/><rect class="cls-31" x="168.25" y="640.2" width="74.1" height="12.07" transform="translate(410.6 799.26) rotate(-180)"/><rect class="cls-32" x="102.87" y="590.41" width="74.1" height="12.07" transform="translate(279.84 699.68) rotate(-180)"/><rect class="cls-33" y="530" width="112.7" height="12.07" transform="translate(112.7 578.85) rotate(-180)"/><rect class="cls-34" x="625.9" y="988.72" width="74.1" height="12.07" transform="translate(1325.9 1496.3) rotate(-180)"/><rect class="cls-35" x="560.21" y="938.93" width="74.1" height="12.07" transform="translate(1194.52 1396.72) rotate(-180)"/><rect class="cls-36" x="495.15" y="889.14" width="74.1" height="12.07" transform="translate(1064.39 1297.14) rotate(-180)"/><rect class="cls-37" x="429.77" y="839.36" width="74.1" height="12.07" transform="translate(933.63 1197.56) rotate(-180)"/><rect class="cls-38" x="364.39" y="789.57" width="74.1" height="12.07" transform="translate(802.87 1097.99) rotate(-180)"/><rect class="cls-39" x="299.01" y="739.78" width="74.1" height="12.07" transform="translate(672.11 998.41) rotate(-180)"/><rect class="cls-40" x="233.63" y="689.99" width="74.1" height="12.07" transform="translate(541.35 898.83) rotate(-180)"/><rect class="cls-41" x="168.25" y="640.2" width="74.1" height="12.07" transform="translate(410.6 799.26) rotate(-180)"/><rect class="cls-42" x="102.87" y="590.41" width="74.1" height="12.07" transform="translate(279.84 699.68) rotate(-180)"/><rect class="cls-43" y="530" width="112.7" height="12.07" transform="translate(112.7 578.85) rotate(-180)"/><rect class="cls-44" x="625.9" y="988.72" width="74.1" height="12.07" transform="translate(1325.9 1496.3) rotate(-180)"/><rect class="cls-45" x="560.21" y="938.93" width="74.1" height="12.07" transform="translate(1194.52 1396.72) rotate(-180)"/><rect class="cls-46" x="495.15" y="889.14" width="74.1" height="12.07" transform="translate(1064.39 1297.14) rotate(-180)"/><rect class="cls-47" x="429.77" y="839.36" width="74.1" height="12.07" transform="translate(933.63 1197.56) rotate(-180)"/><rect class="cls-48" x="364.39" y="789.57" width="74.1" height="12.07" transform="translate(802.87 1097.99) rotate(-180)"/><rect class="cls-49" x="299.01" y="739.78" width="74.1" height="12.07" transform="translate(672.11 998.41) rotate(-180)"/><rect class="cls-50" x="233.63" y="689.99" width="74.1" height="12.07" transform="translate(541.35 898.83) rotate(-180)"/><rect class="cls-51" x="168.25" y="640.2" width="74.1" height="12.07" transform="translate(410.6 799.26) rotate(-180)"/><rect class="cls-52" x="102.87" y="590.41" width="74.1" height="12.07" transform="translate(279.84 699.68) rotate(-180)"/><rect class="cls-53" y="530" width="112.7" height="12.07" transform="translate(112.7 578.85) rotate(-180)"/></svg>