<svg xmlns="http://www.w3.org/2000/svg" xmlns:xlink="http://www.w3.org/1999/xlink" viewBox="0 0 1677.91 134.51"><defs><style>.cls-1{isolation:isolate;}.cls-2{opacity:0.3;mix-blend-mode:multiply;}.cls-3,.cls-4,.cls-5,.cls-6,.cls-7{fill-rule:evenodd;}.cls-3{fill:url(#Безымянный_градиент_314);}.cls-4{fill:url(#Безымянный_градиент_314-2);}.cls-5{fill:url(#Безымянный_градиент_102);}.cls-6{fill:url(#Безымянный_градиент_101);}.cls-7{fill:#e4764d;opacity:0.5;mix-blend-mode:screen;}</style><linearGradient id="Безымянный_градиент_314" x1="-3768.42" y1="1114.12" x2="-2179.03" y2="1114.12" gradientTransform="matrix(-1, 0, 0, 1, -2156.43, -1042.1)" gradientUnits="userSpaceOnUse"><stop offset="0" stop-color="#a86c90"/><stop offset="1" stop-color="#f6c2cb"/></linearGradient><linearGradient id="Безымянный_градиент_314-2" x1="-3822.33" y1="1172.46" x2="-3822.33" y2="1051.68" xlink:href="#Безымянный_градиент_314"/><linearGradient id="Безымянный_градиент_102" x1="-3730.4" y1="1094.68" x2="-2157.11" y2="1094.68" gradientTransform="matrix(-1, 0, 0, 1, -2156.43, -1042.1)" gradientUnits="userSpaceOnUse"><stop offset="0.01" stop-color="#db5f26"/><stop offset="0.98" stop-color="#f38f2d"/></linearGradient><linearGradient id="Безымянный_градиент_101" x1="-3867.54" y1="1094.68" x2="-3784.18" y2="1094.68" gradientTransform="matrix(-1, 0, 0, 1, -2156.43, -1042.1)" gradientUnits="userSpaceOnUse"><stop offset="0.01" stop-color="#7a1d37"/><stop offset="0.98" stop-color="#a32f22"/></linearGradient></defs><title>shelf1</title><g class="cls-1"><g id="Layer_4" data-name="Layer 4"><g class="cls-2"><polygon class="cls-3" points="1666.65 9.53 1653.89 134.51 38.88 119.31 21.91 91.94 1666.65 9.53"/><polygon class="cls-4" points="1666.65 9.53 1677.91 9.53 1661.68 134.51 1653.89 134.51 1666.65 9.53"/></g><polygon class="cls-5" points="1628.07 105.15 1628.07 0 0 0 7.33 99.84 1628.07 105.15"/><polygon class="cls-6" points="1628.07 0 1669.71 9.53 1666.5 105.15 1628.07 105.15 1628.07 0"/><polygon class="cls-7" points="260.72 100.7 247.75 0 69.97 0 95.84 100.16 260.72 100.7"/></g></g></svg>