<svg xmlns="http://www.w3.org/2000/svg" xmlns:xlink="http://www.w3.org/1999/xlink" viewBox="0 0 2147.02 1090.36"><defs><style>.cls-1{isolation:isolate;}.cls-2,.cls-4{fill:#e66d42;}.cls-3{fill:#e15d32;}.cls-4{opacity:0.5;mix-blend-mode:multiply;}.cls-5{fill:#de8264;}.cls-6{fill:#e6461f;}.cls-7{fill:#f18b6e;}.cls-8{fill:#fffdf2;}.cls-9{fill:url(#Безымянный_градиент_307);}.cls-10{fill:url(#Безымянный_градиент_307-2);}.cls-11{fill:url(#Безымянный_градиент_307-3);}.cls-12{fill:url(#Безымянный_градиент_307-4);}.cls-13{fill:#3f0f30;opacity:0.72;}.cls-14{fill:url(#Безымянный_градиент_307-5);}.cls-15{fill:url(#Безымянный_градиент_307-6);}.cls-16{fill:url(#Безымянный_градиент_307-7);}.cls-17{fill:url(#Безымянный_градиент_307-8);}.cls-18{fill:url(#Безымянный_градиент_90);}</style><linearGradient id="Безымянный_градиент_307" x1="2153.67" y1="1367.78" x2="2153.67" y2="1299.25" gradientTransform="matrix(1, 0, -0.15, 1.03, 187.89, -30.49)" gradientUnits="userSpaceOnUse"><stop offset="0" stop-color="#f4d6c4"/><stop offset="1" stop-color="#fefbe3"/></linearGradient><linearGradient id="Безымянный_градиент_307-2" x1="2079.66" y1="1059.72" x2="2320.36" y2="1059.72" gradientTransform="matrix(1, 0, 0, 1, 0, 0)" xlink:href="#Безымянный_градиент_307"/><linearGradient id="Безымянный_градиент_307-3" x1="2246.04" y1="1338.67" x2="2261.67" y2="1338.67" gradientTransform="matrix(1, 0, 0, 1, 0, 0)" xlink:href="#Безымянный_градиент_307"/><linearGradient id="Безымянный_градиент_307-4" x1="2301.19" y1="1071.86" x2="2320.67" y2="1071.86" gradientTransform="matrix(1, 0, 0, 1, 0, 0)" xlink:href="#Безымянный_градиент_307"/><linearGradient id="Безымянный_градиент_307-5" x1="1866.19" y1="1394.72" x2="1866.19" y2="1320.89" gradientTransform="matrix(-1, 0, 0.15, 1.03, 2413.85, -30.49)" xlink:href="#Безымянный_градиент_307"/><linearGradient id="Безымянный_градиент_307-6" x1="571.19" y1="1082.85" x2="795.85" y2="1082.85" gradientTransform="matrix(1, 0, 0, 1, 0, 0)" xlink:href="#Безымянный_градиент_307"/><linearGradient id="Безымянный_градиент_307-7" x1="629.92" y1="1361.54" x2="646.24" y2="1361.54" gradientTransform="matrix(1, 0, 0, 1, 0, 0)" xlink:href="#Безымянный_градиент_307"/><linearGradient id="Безымянный_градиент_307-8" x1="570.91" y1="1094.3" x2="589.16" y2="1094.3" gradientTransform="matrix(1, 0, 0, 1, 0, 0)" xlink:href="#Безымянный_градиент_307"/><linearGradient id="Безымянный_градиент_90" x1="567.78" y1="1229.74" x2="898.74" y2="1229.74" gradientUnits="userSpaceOnUse"><stop offset="0.01" stop-color="#9d1447"/><stop offset="1" stop-color="#e62245"/></linearGradient></defs><title>sofaSvg</title><g class="cls-1"><g id="Гостинная"><polygon class="cls-2" points="100.78 367.02 364 431.28 1726.04 431.28 2051.29 372.59 1944.06 965.22 222.24 924.49 100.78 367.02"/><path class="cls-3" d="M2416.22,976.4c-122.87,138.48-143.65,551.9-143.65,551.9l-829.2-12.67-856.2,12.67s1.42-419-121.45-557.46c0,0-148,33.51-85.31,199.76,40.25,106.74,130.25,139,146.13,432.26l903.33,4.28,903.33,4.36c15.88-293.24,138.3-322.58,168.33-435.34C2549.53,995.9,2416.22,976.4,2416.22,976.4Z" transform="translate(-364.93 -603.82)"/><polygon class="cls-4" points="222.24 924.49 265.55 919.06 1877.72 913.63 1907.64 924.49 222.24 924.49"/><path class="cls-2" d="M2147.3,1423.31s63.68-425.82,73.82-756.85c0,0-1218.87-141-1592.52,0l45.57,761.11S1792.54,1390.41,2147.3,1423.31Z" transform="translate(-364.93 -603.82)"/><path class="cls-4" d="M2198.48,1015.69S2143.4,1270.78,1876.4,1336,927,1378.69,825,1286.85c-130.91-117.93-175.72-274.52-175.72-274.52s6.75,320.57,23.26,388.44l1484.26-3.8S2178,1204.84,2198.48,1015.69Z" transform="translate(-364.93 -603.82)"/><path class="cls-2" d="M630.49,1522.87l-22-123.09s1291.15-62.94,1664.57-25.34l-30.41,144.74Z" transform="translate(-364.93 -603.82)"/><polygon class="cls-5" points="202.17 999.04 208.52 1031.39 1938.26 1031.39 1946.45 1007.69 202.17 999.04"/><polygon class="cls-5" points="208.52 1031.39 222.24 1090.36 236.1 1090.36 263.67 1031.39 208.52 1031.39"/><polygon class="cls-5" points="1938.26 1031.39 1919.45 1090.36 1905.59 1090.36 1878.02 1031.39 1938.26 1031.39"/><polygon class="cls-5" points="1744.26 1031.39 1730.54 1077.4 1716.69 1077.4 1689.12 1031.39 1744.26 1031.39"/><polygon class="cls-5" points="394.38 1031.39 408.1 1077.4 421.96 1077.4 449.53 1031.39 394.38 1031.39"/><polygon class="cls-5" points="202.17 999.04 204.35 1010.16 1944.96 1011.38 1946.45 1007.69 202.17 999.04"/><polygon class="cls-6" points="224.92 999.14 220.62 924.59 223.86 924.39 228.16 998.95 224.92 999.14"/><polygon class="cls-6" points="1907.21 1007.73 1903.97 1007.65 1906.02 924.45 1909.26 924.53 1907.21 1007.73"/><path class="cls-7" d="M2273.07,1374.44s-25.5-10.49-112.83-18.36c0,0-1123.69-12.91-1551.74,43.7C608.5,1399.78,1959.29,1423.31,2273.07,1374.44Z" transform="translate(-364.93 -603.82)"/><path class="cls-4" d="M638.18,676.09s2.29,38.56,39.42,57.13C677.6,733.22,668.64,697.59,638.18,676.09Z" transform="translate(-364.93 -603.82)"/><path class="cls-4" d="M2221.12,666.46s-41.12,3.81-56.41,37.83C2164.71,704.29,2206.55,694,2221.12,666.46Z" transform="translate(-364.93 -603.82)"/><path class="cls-4" d="M671.54,1392.61s17.33-45.77,82-50.37C753.58,1342.24,695.41,1389.43,671.54,1392.61Z" transform="translate(-364.93 -603.82)"/><path class="cls-4" d="M2248.84,1490.3s-454.67,32.24-800.49,30.7l794.31-1.82Z" transform="translate(-364.93 -603.82)"/><path class="cls-4" d="M628.6,1495.71s249,20.36,801.27,25.33l-799.38,1.83Z" transform="translate(-364.93 -603.82)"/><path class="cls-4" d="M999.52,934.79s42,45.32,72,45.32c25.85,0,98.3-59.86,98.3-59.86s-71.76,63.28-73.5,80.7c-2.35,23.45,93.74,96.36,93.74,96.36s-99.92-66.55-124.13-66.67c-17.5-.08-93.38,66.67-93.38,66.67s70.53-80.73,70.71-90.82C1043.6,987.15,999.52,934.79,999.52,934.79Z" transform="translate(-364.93 -603.82)"/><path class="cls-2" d="M1080.45,1004.35a8.45,8.45,0,1,1-8.45-8.45A8.45,8.45,0,0,1,1080.45,1004.35Z" transform="translate(-364.93 -603.82)"/><path class="cls-4" d="M802.26,779.18s42,45.32,72,45.32c25.85,0,98.3-59.86,98.3-59.86s-71.76,63.28-73.5,80.7c-2.35,23.46,55.18,58.52,55.18,58.52S892.87,875.15,868.66,875c-17.5-.09-74.85,34.8-74.85,34.8s52-48.86,52.18-59C846.33,831.54,802.26,779.18,802.26,779.18Z" transform="translate(-364.93 -603.82)"/><path class="cls-2" d="M883.18,848.74a8.45,8.45,0,1,1-8.45-8.44A8.45,8.45,0,0,1,883.18,848.74Z" transform="translate(-364.93 -603.82)"/><path class="cls-4" d="M1208,768.47s42,45.31,72,45.31c25.86,0,98.3-59.85,98.3-59.85s-71.75,63.28-73.5,80.7c-2.34,23.45,55.18,58.51,55.18,58.51s-61.36-28.71-85.57-28.82c-17.5-.08-74.85,34.81-74.85,34.81s52-48.87,52.19-59C1252,820.83,1208,768.47,1208,768.47Z" transform="translate(-364.93 -603.82)"/><path class="cls-2" d="M1288.89,838a8.45,8.45,0,1,1-8.45-8.45A8.44,8.44,0,0,1,1288.89,838Z" transform="translate(-364.93 -603.82)"/><path class="cls-4" d="M802.26,1122.57s42,45.32,72,45.32c25.85,0,98.3-70.58,98.3-70.58s-71.76,74-73.5,91.42c-2.35,23.45,55.18,58.51,55.18,58.51s-61.36-28.7-85.57-28.82c-17.5-.08-74.85,34.81-74.85,34.81s52-48.87,52.18-59C846.33,1174.93,802.26,1122.57,802.26,1122.57Z" transform="translate(-364.93 -603.82)"/><path class="cls-2" d="M883.18,1192.13a8.45,8.45,0,1,1-8.45-8.45A8.46,8.46,0,0,1,883.18,1192.13Z" transform="translate(-364.93 -603.82)"/><path class="cls-4" d="M1208,1111.85s42,45.32,72,45.32c25.86,0,126.82-105.19,126.82-105.19s-100.27,108.61-102,126c-2.34,23.46,86.54,91.93,86.54,91.93s-92.72-62.12-116.93-62.23c-17.5-.09-74.85,34.8-74.85,34.8s52-48.86,52.19-59C1252,1164.21,1208,1111.85,1208,1111.85Z" transform="translate(-364.93 -603.82)"/><path class="cls-2" d="M1288.89,1181.41a8.45,8.45,0,1,1-8.45-8.44A8.45,8.45,0,0,1,1288.89,1181.41Z" transform="translate(-364.93 -603.82)"/><path class="cls-4" d="M1732.51,934.79s42,45.32,72,45.32c25.86,0,98.3-59.86,98.3-59.86s-71.76,63.28-73.5,80.7c-2.35,23.45,93.74,96.36,93.74,96.36s-99.92-66.55-124.13-66.67c-17.5-.08-93.38,66.67-93.38,66.67s70.54-80.73,70.71-90.82C1776.58,987.15,1732.51,934.79,1732.51,934.79Z" transform="translate(-364.93 -603.82)"/><path class="cls-2" d="M1813.43,1004.35a8.45,8.45,0,1,1-8.45-8.45A8.44,8.44,0,0,1,1813.43,1004.35Z" transform="translate(-364.93 -603.82)"/><path class="cls-4" d="M1535.24,779.18s42,45.32,72,45.32c25.86,0,98.3-59.86,98.3-59.86s-71.76,63.28-73.5,80.7c-2.35,23.46,55.18,58.52,55.18,58.52s-61.36-28.71-85.57-28.82c-17.5-.09-74.85,34.8-74.85,34.8s52-48.86,52.18-59C1579.31,831.54,1535.24,779.18,1535.24,779.18Z" transform="translate(-364.93 -603.82)"/><path class="cls-2" d="M1616.16,848.74a8.45,8.45,0,1,1-8.45-8.44A8.45,8.45,0,0,1,1616.16,848.74Z" transform="translate(-364.93 -603.82)"/><path class="cls-4" d="M1941,768.47s42,45.31,72,45.31c25.86,0,98.3-59.85,98.3-59.85s-71.75,63.28-73.49,80.7c-2.35,23.45,55.17,58.51,55.17,58.51s-61.36-28.71-85.57-28.82c-17.5-.08-74.85,34.81-74.85,34.81s52-48.87,52.19-59C1985,820.83,1941,768.47,1941,768.47Z" transform="translate(-364.93 -603.82)"/><path class="cls-2" d="M2021.87,838a8.45,8.45,0,1,1-8.44-8.45A8.44,8.44,0,0,1,2021.87,838Z" transform="translate(-364.93 -603.82)"/><path class="cls-4" d="M1535.24,1122.57s42,45.32,72,45.32c25.86,0,98.3-70.58,98.3-70.58s-71.76,74-73.5,91.42c-2.35,23.45,55.18,58.51,55.18,58.51s-61.36-28.7-85.57-28.82c-17.5-.08-74.85,34.81-74.85,34.81s52-48.87,52.18-59C1579.31,1174.93,1535.24,1122.57,1535.24,1122.57Z" transform="translate(-364.93 -603.82)"/><path class="cls-2" d="M1616.16,1192.13a8.45,8.45,0,1,1-8.45-8.45A8.45,8.45,0,0,1,1616.16,1192.13Z" transform="translate(-364.93 -603.82)"/><path class="cls-4" d="M1941,1111.85s42,45.32,72,45.32c25.86,0,126.82-105.19,126.82-105.19s-100.27,108.61-102,126c-2.35,23.46,86.53,91.93,86.53,91.93s-92.72-62.12-116.93-62.23c-17.5-.09-74.85,34.8-74.85,34.8s52-48.86,52.19-59C1985,1164.21,1941,1111.85,1941,1111.85Z" transform="translate(-364.93 -603.82)"/><path class="cls-2" d="M2021.87,1181.41a8.45,8.45,0,1,1-8.44-8.44A8.44,8.44,0,0,1,2021.87,1181.41Z" transform="translate(-364.93 -603.82)"/><path class="cls-4" d="M2251.43,1371.62l-414.51-14.32s73.85-249.17,160.38-268S2251.43,1371.62,2251.43,1371.62Z" transform="translate(-364.93 -603.82)"/><path class="cls-8" d="M2324.05,1079.89a479,479,0,0,1-5.62,74.47c-.62,4.08-1.27,8.16-1.95,12.2q-.61,3.81-1.34,7.61c-.65,3.57-1.34,7.13-2,10.63a817.81,817.81,0,0,1-27.94,102.37c-2.71,7.95-5.42,15.46-8,22.52-14,37.85-25.71,61.92-25.71,61.92s-22-1.89-52.93-4.7l-11.76-1.06c-12.34-1.13-25.68-2.37-39.36-3.67-7.54-.72-15.59-1.41-23.82-2-11.86-1-24.14-1.79-36-2.54-15-.93-29.35-1.71-41.38-2.37l-11.21-.54c-13.54-.69-22.15-1-22.15-1a242.86,242.86,0,0,1-23.21-64.76q-2.41-12.09-3.63-24c-3.19-31.33-.17-61.26,6-88.31.72-3.32,1.54-6.62,2.37-9.84,1-3.74,2-7.44,3.08-11,.86-3,1.78-5.83,2.71-8.67a374.59,374.59,0,0,1,34.73-75.77c1.4-2.33,2.74-4.52,4-6.51.72-1.17,1.4-2.26,2.09-3.29,5.31-8.19,8.78-12.69,8.78-12.69s5,1.07,13,2.68c24.52,4.87,77.72,14.71,106.21,14.33a129.46,129.46,0,0,0,14.91-1.3h0c3.46-.45,7.16-1.07,11-1.72,20.67-3.63,46.59-10,69.49-16,8.91-2.4,17.38-4.73,24.89-6.86,18.31-5.14,31-9,31-9a336.88,336.88,0,0,1,3.46,37.43C2324,1072.18,2324.05,1076,2324.05,1079.89Z" transform="translate(-364.93 -603.82)"/><path class="cls-9" d="M2251.43,1371.62s-96.37-53.29-155.63-68c-60.85-15.07-83,50-83,50Z" transform="translate(-364.93 -603.82)"/><path class="cls-10" d="M2320.36,1030.93s-133.62,51.06-179.64,55.62c-45.44,4.52-61.06-.15-61.06-.15s40.35-5.74,90.23-15.73C2220.92,1060.45,2320.36,1030.93,2320.36,1030.93Z" transform="translate(-364.93 -603.82)"/><path class="cls-11" d="M2251.43,1371.62s-17.12-37.92,9.65-65.9C2261.08,1305.72,2265.26,1343.52,2251.43,1371.62Z" transform="translate(-364.93 -603.82)"/><path class="cls-12" d="M2320.36,1030.93s-22.29,50.73-18.8,63c3.42,12,13.45,18.83,13.45,18.83S2322.24,1044.37,2320.36,1030.93Z" transform="translate(-364.93 -603.82)"/><path class="cls-13" d="M2049.76,1048.83s-3.47,4.5-8.78,12.69c7.23-3.33,14.64-6.55,21.8-10C2054.73,1049.9,2049.76,1048.83,2049.76,1048.83Zm172.85,36.62c20.64-12.79,40.59-26.37,59.62-40.94q21.24,16.92,41.82,35.38c0-3.87-.1-7.71-.24-11.52q-16.92-14.8-34.45-28.45c-7.51,2.13-16,4.46-24.89,6.86-15.74,11.52-32.09,22.42-48.85,32.81q-10.29-8.6-20.64-16.77c-3.88.65-7.58,1.27-11,1.72q12.18,9.51,24.2,19.5c-15.66,9.4-31.91,18.07-48.47,26.06-11.38,5.93-23.73,10.66-35.66,15.46q-41.81-32.91-85.12-60.75c-1.27,2-2.61,4.18-4,6.51,27.12,17.76,54.34,36.93,80.77,57.94a745.46,745.46,0,0,1-97.91,32.06q-8.81-7.26-17.59-14.23c-.93,2.84-1.85,5.72-2.71,8.67,3.33,2.64,6.62,5.32,9.91,8-4.32,1-8.64,2-13,3-.83,3.22-1.65,6.52-2.37,9.84,7.88-1.89,15.8-4,23.83-6a874.57,874.57,0,0,1,75.76,73.7c-34.83,8.4-70.11,15.12-105.59,20.64q1.23,11.88,3.63,24c6.18,7.57,12.24,15.32,18,23.58,9.43,13.48,18.41,27.7,27.36,42.21l11.21.54c-18-29-37.74-55.84-58-81.42,37.09-6,74-12.85,110.7-21.84,5.17,5.83,11.14,11.59,16.32,17.87,18.27,21.66,35.65,44.8,52.59,69-26.44,7.48-53.28,13.75-80.26,18.79,11.86.75,24.14,1.58,36,2.54q25.14-5.61,49.95-12.83c4.39,6.18,8.95,12.28,13.23,18.52l11.76,1.06q-4.11-6.33-8.26-12.62c-2.23-3.39-4.84-6.58-7.44-10a848.54,848.54,0,0,0,94.34-34.56c2.61-7.06,5.32-14.57,8-22.52a877.8,877.8,0,0,0-64.32-74.43,721,721,0,0,0,82.79-38.33q4.74,5.14,9.47,10.39c.68-3.5,1.37-7.06,2-10.63-1.34-1.51-2.71-3-4.08-4.49,1.82-1,3.63-2.06,5.42-3.12.68-4,1.33-8.12,1.95-12.2q-6.94,4.22-14.09,8.16A1054.11,1054.11,0,0,0,2222.61,1085.45Zm-196.68,82.89c4.53-1.26,9.39-2.12,14-3.39,28.56-7.92,56.57-18.31,83.82-29.79q31.74,25.3,62.16,53.82c6.38,6.24,12.38,13.37,18.82,19.68a931.52,931.52,0,0,1-102.88,33.26A868,868,0,0,0,2025.93,1168.34Zm255.58,128.19a822.84,822.84,0,0,1-104.74,39.15c-21.73-30.44-44.12-59.45-67.94-86.12a1061.27,1061.27,0,0,0,103-33.43A853.54,853.54,0,0,1,2281.51,1296.53Zm-67.44-91.16c-2.29-2.13-4.21-4.53-6.1-6.55a942,942,0,0,0-75.93-67c9.11-3.81,18.16-7.34,27-11.55,19.51-9.33,38.09-19.48,56-30.31a1004.15,1004.15,0,0,1,81.84,77.31C2270.64,1181.89,2242.46,1194.12,2214.07,1205.37Z" transform="translate(-364.93 -603.82)"/><path class="cls-4" d="M640.42,1397l416.38-20.23s-75.72-243.26-162.25-262.12S640.42,1397,640.42,1397Z" transform="translate(-364.93 -603.82)"/><path class="cls-8" d="M898.74,1298.79c-.13,2.57-.34,5.14-.61,7.75A252.21,252.21,0,0,1,881,1377.3s-11.21.51-28.11,1.47c-3.46.17-7.16.38-11,.58a3.92,3.92,0,0,1-.68.07c-3,.17-6.14.35-9.33.55-26,1.58-58.11,3.81-84.58,6.52-.41.06-.82.1-1.23.13l-16,1.65c-40.28,4.08-75.28,7.44-85.64,8.4l-3.08.31s-2.13-4.56-5.63-12.79a11.37,11.37,0,0,1-.48-1.06c-.92-2.2-1.95-4.63-3.08-7.27-8.57-20.67-21.87-54.92-34.18-95.79-.79-2.64-1.58-5.35-2.37-8-8.88-30.48-17-64.25-22.11-98.57-.38-2.36-.72-4.76-1-7.16-2-14.68-3.46-29.38-4.15-44-.27-5.83-.41-11.63-.44-17.35,0-6.58.14-13.1.48-19.54.14-2.61.31-5.18.51-7.75.55-7.27,1.34-14.4,2.44-21.43,0,0,8.53,2.57,21.6,6.24,2.15.62,4.42,1.24,6.78,1.92,9.19,2.54,20,5.45,31.2,8.37,2.37.58,4.73,1.16,7.1,1.78,6.82,1.71,13.71,3.39,20.5,4.94l6.41,1.44c16.11,3.56,31.13,6.3,41.86,7.09,1.78.14,3.46.21,5,.24h2c5.35,0,11.52-.37,18.13-1,2.27-.21,4.6-.45,7-.69,10.66-1.2,22.08-2.84,32.91-4.62,2.13-.35,4.26-.72,6.31-1.07,9.33-1.61,18-3.22,25.13-4.63,2.2-.41,4.22-.82,6.1-1.2,7.41-1.47,12-2.46,12-2.46s18.45,21.7,37.41,57.49c1.44,2.64,2.84,5.38,4.25,8.23a375.84,375.84,0,0,1,18.34,43v0c1.09,3,2.16,6.2,3.19,9.35,3.18,10,6,20.4,8.36,31.24,1.17,5.28,2.16,10.66,3,16.11A271.69,271.69,0,0,1,898.74,1298.79Z" transform="translate(-364.93 -603.82)"/><path class="cls-14" d="M641.26,1399.24s94.84-57.73,152.9-73.33c59.09-15.88,86.8,53.68,86.8,53.68Z" transform="translate(-364.93 -603.82)"/><path class="cls-15" d="M571.19,1056.27s124.59,47,167.7,51.32c42.67,4.23,57-.15,57-.15s-37.94-5.36-84.8-14.66C663.37,1083.31,571.19,1056.27,571.19,1056.27Z" transform="translate(-364.93 -603.82)"/><path class="cls-16" d="M641.26,1397c-1.68,4.23,18-39.44-11-71.14C630.29,1325.83,626.78,1366.3,641.26,1397Z" transform="translate(-364.93 -603.82)"/><path class="cls-17" d="M571.19,1056.27S592,1103,588.83,1114.54c-3.13,11.35-12.53,17.8-12.53,17.8S569.47,1068.53,571.19,1056.27Z" transform="translate(-364.93 -603.82)"/><path class="cls-18" d="M592.81,1062.51c-3.09,2.75-15.6,10-24,15.19-.2,2.57-.37,5.14-.51,7.75,10.66-6.89,26.19-16.35,31.33-21C597.23,1063.75,595,1063.13,592.81,1062.51Zm289.82,223.66a476.35,476.35,0,0,0,13.1-48.06c-.86-5.45-1.85-10.83-3-16.11a462.81,462.81,0,0,1-15.84,59.75c-16.14-13-31.57-26.64-46.38-40.66a561.88,561.88,0,0,0,25.13-72.68q14.08,11.58,28.73,22.35c-1-3.15-2.1-6.3-3.19-9.35v0c-8.23-6.17-16.25-12.51-23.93-19,2-8,3.91-16,5.59-24-1.41-2.85-2.81-5.59-4.25-8.23-1.92,9.15-4.05,18.41-6.45,27.77a559.18,559.18,0,0,1-51.42-50.43c3.12-11,6-21.77,8.46-32.37-1.88.38-3.9.79-6.1,1.2-2.16,8.58-4.56,17.21-7.06,26.13-6.21-7.17-12.27-14.3-18.07-21.5-2,.35-4.18.72-6.31,1.07,3.54,4.52,7.1,9,10.67,13.33,3.77,4.6,8.09,8.57,11.86,13a637.44,637.44,0,0,1-23.69,66.13,595.73,595.73,0,0,1-43.33-62.6c4.11-8.5,8-16.9,11.58-25.27-2.36.24-4.69.48-7,.69-2.67,6-5.48,12-8.43,18.07-3.29-5.69-6.55-11.35-9.7-17.08h-2c-1.54,0-3.22-.1-5-.24,4.11,7.85,8.84,15.6,13.68,23.62a509.36,509.36,0,0,1-36.41,59.55c-13-23.79-24.41-47.51-34.76-70.89,5.41-6.41,10.66-12.89,15.63-19.37l-6.41-1.44c-3.84,5-7.85,9.91-12.07,14.91-2.91-6.68-5.76-13.3-8.43-19.85-2.37-.62-4.73-1.2-7.1-1.78,3.53,8.74,7.3,17.59,11.28,26.43-6.55,7.75-13,15.63-20.54,23.17-9.56,9.6-20.09,18.93-30.85,28.49-5.18-13.74-16.35-31-22.9-45.9,0,5.72.17,11.52.44,17.35,6.07,11.72,13.79,24.75,17.15,33.52-.28.25-.52.49-.79.49-4,3.25-8,6.61-12.21,9.94.31,2.4.65,4.8,1,7.16,4.83-3.8,9.53-7.71,14.23-11.72a686.14,686.14,0,0,0,37.61,80.56c-5.49,5.86-10.8,12.07-16.66,17.52C604.36,1264,600,1268,595.51,1272c.79,2.7,1.58,5.41,2.37,8,8.71-8,17.11-16.25,25.23-24.44,2.09-2.09,3.94-4.42,6-6.79a761,761,0,0,0,49.65,77.1c-1.58,1.68-2.85,4-4.39,5.69a534.34,534.34,0,0,1-42.34,44.23c1.13,2.64,2.16,5.07,3.08,7.27,9.54-9,19.27-17.49,28.18-27.12,7-7.72,13.24-16.25,19.72-24.38q22,29.11,46.93,56.64l16-1.65c.41,0,.82-.07,1.23-.13,14.51-19.82,27.74-39.7,39.77-59.35A650.51,650.51,0,0,0,835.22,1374c-1.1,2-2.23,4-3.43,6,3.19-.2,6.31-.38,9.33-.55a1.91,1.91,0,0,1,.24-.44,4.28,4.28,0,0,0,.44.37c3.88-.2,7.58-.41,11-.58-2.54-2.19-5.07-4.32-7.58-6.34a537.94,537.94,0,0,0,34.9-79.57c6,4.63,11.93,9.19,18,13.68.27-2.61.48-5.18.61-7.75C893.33,1294.71,888,1290.53,882.63,1286.17Zm-84-173c6.82,7.5,13.54,15.49,20.84,22.69,9.67,9.67,20.4,18.79,31,28a585.49,585.49,0,0,1-25.16,72.16c-10.83-10.52-21.15-21.42-30.92-32.5-7-7.51-13.24-15.73-19.41-23.62A629.56,629.56,0,0,0,798.64,1113.22Zm-74.7,4.83c1.78,2.85,3.36,6,5.17,8.85a576.79,576.79,0,0,0,38.95,54q-10.95,25.56-24.92,51.39c-3.16,5.48-7.07,10.83-10.29,16.45a788.11,788.11,0,0,1-45.25-70.65A509.07,509.07,0,0,0,723.94,1118.05Zm-130.72,39.39c19.33-16.73,36.06-34.42,51.46-52,10.59,23.59,22,47.55,35.24,71.82-3.16,4.32-6.1,9.19-9.57,13.58-12.06,15.6-25.5,30.92-39.94,46.25A696,696,0,0,1,593.22,1157.44Zm41.07,85.85c18.13-19.68,34.79-39.33,49.26-59.42,13.51,23.8,28.87,47.52,45.36,71.11a569.34,569.34,0,0,1-45.29,64.38A732.43,732.43,0,0,1,634.29,1243.29ZM738,1385.05c-17.72-19.51-34.35-39.36-49.84-59.76a591.62,591.62,0,0,0,45.25-63.83,703.69,703.69,0,0,0,48.13,60.27A742.31,742.31,0,0,1,738,1385.05Zm47.35-69.67c-17.49-19.13-33.26-39.63-48-60,1.06-2,2.4-3.74,3.46-5.42a574.84,574.84,0,0,0,31.54-63.63c4.84,6,9.47,12.1,14.57,18,11.42,13.09,23.35,25.57,35.83,37.67A644.67,644.67,0,0,1,785.34,1315.38Zm53.79,52a555.08,555.08,0,0,1-48.34-46.65A666.91,666.91,0,0,0,828,1247.09c14.88,14.16,30.38,27.91,46.63,41A571.21,571.21,0,0,1,839.13,1367.42Zm-203.51,16.77c3.5,8.23,5.63,12.79,5.63,12.79l3.08-.31C641.38,1392.52,638.54,1388.3,635.62,1384.19Z" transform="translate(-364.93 -603.82)"/></g></g></svg>